<svg width="1024" height="1024" viewBox="0 0 1024 1024" fill="none" xmlns="http://www.w3.org/2000/svg">
<path d="M618.046 462.938C654.758 462.664 686.949 433.623 701.469 387.322C712.976 351.021 710.922 306.089 696.264 272.117C682.977 241.432 659.552 219.378 633.114 212.666C625.58 210.748 610.512 210.199 604.347 211.569C572.156 218.692 546.128 245.131 532.977 283.761C513.389 341.021 529.279 413.212 568.457 444.856C584.21 457.596 598.868 462.938 618.046 462.938ZM405.717 462.938C419.142 462.938 427.772 461.021 438.731 455.678C483.525 433.624 508.319 368.144 496.128 304.172C487.771 260.336 462.155 225.816 429.005 214.173C419.553 210.748 399.553 210.063 389.964 212.666C363.663 219.926 340.649 241.843 327.499 272.117C312.841 306.089 310.786 351.021 322.293 387.322C336.813 433.623 369.005 462.664 405.717 462.938ZM194.759 561.431C243.252 610.883 311.608 585.267 317.224 515.404C319.553 486.5 311.882 458.692 294.622 434.446C274.348 405.679 238.869 390.747 211.883 399.514C199.691 403.487 192.567 407.734 184.485 415.953C175.718 424.857 169.69 435.815 165.033 450.336C162.43 458.966 161.882 463.487 162.019 478.418C162.156 499.239 165.17 512.938 173.389 530.472C180.102 544.308 184.759 551.158 194.759 561.431ZM728.456 567.595C742.291 581.842 758.456 588.281 777.634 586.911C801.058 585.267 825.442 570.062 841.058 547.322C847.497 538.007 855.168 520.473 858.592 507.87C863.113 490.884 863.113 464.719 858.729 450.336C854.072 435.815 848.044 424.856 839.277 415.952C824.072 400.473 804.346 394.445 781.333 398.281C764.347 401.158 741.47 416.911 729.141 434.445C698.183 478.006 697.908 535.678 728.456 567.595ZM579.005 803.759C625.169 811.705 647.087 814.033 666.676 812.937C716.538 810.197 744.072 785.266 747.086 740.061C748.456 717.322 744.209 688.555 734.894 659.925C710.648 585.13 653.798 518.418 589.278 489.103C561.744 476.501 547.772 473.486 515.991 472.938C502.018 472.664 489.141 472.802 487.223 473.076C465.306 477.048 451.881 481.158 434.484 489.103C369.827 518.555 313.114 585.13 288.868 659.925C282.567 679.513 279.827 692.117 277.772 710.884C273.526 748.965 279.416 773.075 297.361 790.746C312.566 805.677 329.005 811.704 358.457 812.937C379.005 813.759 394.21 811.979 449.552 802.527C512.018 791.842 509.553 791.842 579.005 803.759Z" fill="white"/>
</svg>
